<svg width="182" height="98" xmlns="http://www.w3.org/2000/svg" xmlns:xlink="http://www.w3.org/1999/xlink" overflow="hidden"><defs><clipPath id="clip0"><path d="M507 311 689 311 689 409 507 409Z" fill-rule="evenodd" clip-rule="evenodd"/></clipPath><clipPath id="clip1"><path d="M592 312 688 312 688 408 592 408Z" fill-rule="evenodd" clip-rule="evenodd"/></clipPath><clipPath id="clip2"><path d="M592 312 688 312 688 408 592 408Z" fill-rule="evenodd" clip-rule="evenodd"/></clipPath><clipPath id="clip3"><path d="M592 312 688 312 688 408 592 408Z" fill-rule="evenodd" clip-rule="evenodd"/></clipPath><clipPath id="clip4"><path d="M508 312 604 312 604 408 508 408Z" fill-rule="evenodd" clip-rule="evenodd"/></clipPath><clipPath id="clip5"><path d="M508 312 604 312 604 408 508 408Z" fill-rule="evenodd" clip-rule="evenodd"/></clipPath><clipPath id="clip6"><path d="M508 312 604 312 604 408 508 408Z" fill-rule="evenodd" clip-rule="evenodd"/></clipPath></defs><g clip-path="url(#clip0)" transform="translate(-507 -311)"><g clip-path="url(#clip1)"><g clip-path="url(#clip2)"><g clip-path="url(#clip3)"><path d="M632.733 398.185 678 387.259 678 337.539 645.054 321.85 602 331.244 602 381.637ZM644.327 328.15 665.865 338.406 648.429 342.314 633.581 345.642 613.562 334.862ZM608 378.053 608 338.682 630.145 350.607 630.145 389.978ZM672 382.535 636.145 391.19 636.145 351.217 651.729 347.723 672 343.18Z" fill="#E15555"/><path d="M643.69 330.186 645.69 330.186 645.69 334.186 643.69 334.186Z" fill="#E15555"/><path d="M643.69 351.186 645.69 351.186 645.69 355.186 643.69 355.186Z" fill="#E15555"/><path d="M643.69 358.186 645.69 358.186 645.69 362.186 643.69 362.186Z" fill="#E15555"/><path d="M643.69 337.186 645.69 337.186 645.69 341.186 643.69 341.186Z" fill="#E15555"/><path d="M643.69 365.186 645.69 365.186 645.69 369.186 643.69 369.186Z" fill="#E15555"/><path d="M658.282 378.431 659.107 376.609 662.751 378.258 661.927 380.08Z" fill="#E15555"/><path d="M638.977 371.408 642.886 370.556 643.311 372.51 639.403 373.362Z" fill="#E15555"/><path d="M611.621 377.377 615.529 376.525 615.955 378.479 612.047 379.331Z" fill="#E15555"/><path d="M651.904 375.547 652.728 373.725 656.372 375.373 655.548 377.195Z" fill="#E15555"/><path d="M664.66 381.316 665.484 379.494 669.129 381.143 668.304 382.965Z" fill="#E15555"/><path d="M645.527 372.661 646.352 370.839 649.996 372.487 649.172 374.31Z" fill="#E15555"/><path d="M618.46 375.885 622.368 375.033 622.794 376.988 618.885 377.839Z" fill="#E15555"/><path d="M625.299 374.393 629.208 373.542 629.633 375.496 625.725 376.347Z" fill="#E15555"/></g></g></g><g clip-path="url(#clip4)"><g clip-path="url(#clip5)"><g clip-path="url(#clip6)"><path d="M531 394 531 326 556 326 556 347 581 347 581 394 531 394ZM562 328.5 574.5 341 562 341 562 328.5ZM562 320 525 320 525 400 587 400 587 342 562 320Z" fill="#E15555"/><path d="M537 357 575 357 575 361 537 361Z" fill="#E15555"/><path d="M537 349 550 349 550 353 537 353Z" fill="#E15555"/><path d="M537 365 575 365 575 369 537 369Z" fill="#E15555"/><path d="M537 373 575 373 575 377 537 377Z" fill="#E15555"/><path d="M537 381 575 381 575 385 537 385Z" fill="#E15555"/></g></g></g></g></svg>